/* XPM */
static char *dummy[]={
"32 32 3 1",
"# c #000000",
"a c #00ff00",
". c #ff0000",
".##############################.",
"...########aaaaaaaaaa########...",
"#.#.######a##########a######.#.#",
"#.##..###a############a###..##.#",
"#.####.#a##############a#.####.#",
"##.####..##############..####.##",
"##.###a##.############.##a###.##",
"##.##a####..########..####a##.##",
"###.a#######.######.#######a.###",
"###.#########..##..#########.###",
"##a.#########......#########.a##",
"#a##.#####...######...#####.##a#",
"a###.#....############....#.###a",
"aaaa..aaaaaaaaaaaaaaaaaaaa..aaaa",
"############aaa##aaa############",
"##########aa##a##a##aa##########",
"########aa###a####a###aa########",
"#######aa####a####a####aa#######",
"#######a#aa#a######a#aa#a#######",
"#######a##a#a######a#a##a#######",
"#######a###a########a###a#######",
"#######a###a########a###a#######",
"#######a##a##########a##a#######",
"#######a##a##########a##a#######",
"#######a##a##########a##a#######",
"#######a#a############a#a#######",
"#######a#a############a#a#######",
"#######a#a############a#a#######",
"#######aa##############aa#######",
"#######aa##############aa#######",
"#######aa##############aa#######",
"#######a################a#######"};
